<svg width="334" height="600" viewBox="0 0 334 849" fill="none" xmlns="http://www.w3.org/2000/svg">
<path d="M1.45166 161.341L145.081 271.095" stroke="black"/>
<path d="M68.2979 134.692L145.532 271.095" stroke="black"/>
<path d="M328.456 161.792L199.28 271.998" stroke="black"/>
<path d="M258.9 140.564L199.732 271.095" stroke="black"/>
<path d="M172.181 208.765V243.543" stroke="black" stroke-width="2"/>
<path d="M175.643 1.46589C29.3469 -0.297402 1 162.364 1 162.364C1 162.364 40.0992 94.4783 113.736 162.364C187.373 230.25 161.307 217.907 223.54 162.364C285.773 106.821 328.456 162.364 328.456 162.364C328.456 162.364 321.939 3.22919 175.643 1.46589Z" fill="#ECF3FF" stroke="black" stroke-width="2"/>
<path d="M67.8478 134.241C67.3715 30.1112 172.632 1.45166 172.632 1.45166" stroke="black" stroke-width="2"/>
<path d="M258.682 140.564C273.98 53.5755 172.632 1 172.632 1" stroke="black" stroke-width="2"/>
<path d="M172.632 208.765V1.45166" stroke="black" stroke-width="2"/>
<mask id="path-10-inside-1_832_9218" fill="white">
<path d="M264.053 545.743C264.053 465.314 254.26 388.179 236.829 331.307C219.398 274.435 195.756 242.485 171.104 242.485C146.453 242.485 122.811 274.435 105.379 331.307C87.9481 388.179 78.1553 465.314 78.1553 545.742L171.104 545.743H264.053Z"/>
</mask>
<path d="M264.053 545.743C264.053 465.314 254.26 388.179 236.829 331.307C219.398 274.435 195.756 242.485 171.104 242.485C146.453 242.485 122.811 274.435 105.379 331.307C87.9481 388.179 78.1553 465.314 78.1553 545.742L171.104 545.743H264.053Z" fill="#ECF3FF" stroke="black" stroke-width="4" mask="url(#path-10-inside-1_832_9218)"/>
<path d="M117.588 297.878C117.588 297.878 147.632 311.023 171.104 311.023C194.576 311.023 224.62 297.878 224.62 297.878" stroke="black" stroke-width="2"/>
<path d="M207.314 366.396C207.314 384.731 191.252 399.722 171.277 399.722C151.302 399.722 135.241 384.731 135.241 366.396C135.241 348.06 151.302 333.069 171.277 333.069C191.252 333.069 207.314 348.06 207.314 366.396Z" fill="#D7D7D7" fill-opacity="0.5" stroke="black" stroke-width="2"/>
<g clip-path="url(#clip0_832_9218)">
<path d="M191.363 325.069C189.769 327.305 188.726 328.244 188.196 328.598C189.342 328.406 192.818 329.053 198.216 338.323C203.762 347.846 217.229 324.83 219.487 316.665C229.381 280.904 255.056 282.209 206.04 361.231C199.532 371.725 198.536 358.311 192.811 380.985C187.085 403.658 189.569 393.947 188.892 396.431C188.892 396.431 183.246 399.638 175.342 400.27C169.696 400.722 163.696 400.445 159.308 398.69C149.146 394.625 147.339 392.366 145.984 391.011C148.92 380.759 148.687 381.555 155.102 363.057C161.249 345.328 149.447 350.505 141.483 324.316C125.307 271.127 141.452 266.841 148.76 313.062C151.485 330.303 160.671 330.644 167.572 330.057C175.098 329.418 171.925 324.554 175.295 323.242L191.363 325.069Z" fill="#121212" stroke="black" stroke-miterlimit="10"/>
<path d="M178.216 340.708L175.24 336.873C174.662 336.127 174.798 335.054 175.544 334.476L179.382 331.504C180.128 330.927 181.203 331.063 181.782 331.808L184.757 335.643C185.336 336.389 185.2 337.463 184.454 338.04L180.616 341.012C179.865 341.589 178.795 341.453 178.216 340.708Z" fill="white" stroke="black" stroke-width="1.3159" stroke-miterlimit="10"/>
<path d="M174.793 375.19L170.284 346.862C170.249 346.634 170.332 346.406 170.51 346.272L179.148 339.584C179.419 339.375 179.825 339.436 180.047 339.722L186.665 348.251C186.812 348.44 186.849 348.688 186.763 348.906L176.016 375.389C175.775 375.982 174.896 375.836 174.793 375.19Z" fill="white" stroke="white" stroke-width="1.8898" stroke-miterlimit="10"/>
<path d="M174.207 267.217C174.207 267.217 174.162 267.148 171.424 262.666C168.682 258.183 167.169 255.152 163.259 252.032C161.404 250.55 158.906 248.719 157.302 248.486C154.707 248.113 154.2 250.382 154.703 252.297C154.937 253.184 155.782 255.292 157.409 256.721C158.493 257.672 161.013 258.795 162.717 258.889C163.7 258.945 165.673 259.229 166.295 259.318C167.339 259.469 168.028 260.648 168.732 261.75L172.914 269.537L174.207 267.217Z" fill="black" stroke="black" stroke-width="0.9815" stroke-miterlimit="10"/>
<path d="M186.858 264.723C186.858 264.723 186.891 264.655 189.079 260.202C191.267 255.75 192.407 252.754 195.944 249.544C197.623 248.023 199.907 246.125 201.496 245.82C204.065 245.323 204.87 247.475 204.604 249.341C204.48 250.202 203.901 252.276 202.443 253.738C201.472 254.706 199.075 255.926 197.37 256.105C196.386 256.209 194.437 256.586 193.817 256.707C192.783 256.907 192.24 258.075 191.677 259.173L188.463 266.183L186.858 264.723Z" fill="black" stroke="black" stroke-width="0.9694" stroke-miterlimit="10"/>
<path d="M151.157 297.99C150.127 277.374 174.893 268.964 178.99 263.293C181.195 260.241 182.665 260.418 185.046 263.062C189.376 267.867 217.519 274.594 216.658 297.166C215.936 316.177 202.408 329.366 184.32 329.592C166.232 329.819 152.035 315.649 151.157 297.99Z" fill="#489DED"/>
<path d="M174.405 273.812C182.962 270.152 180.144 269.308 192.169 272.911" stroke="black" stroke-width="5" stroke-miterlimit="10" stroke-linecap="round"/>
<path d="M183.446 306.742C193.782 308.051 202.949 302.889 203.921 295.212C204.894 287.534 197.304 280.249 186.968 278.939C176.633 277.63 167.465 282.792 166.493 290.469C165.52 298.147 173.11 305.432 183.446 306.742Z" fill="white" stroke="black" stroke-width="2.6741" stroke-miterlimit="10"/>
<path d="M183.901 303.147C189.997 303.919 195.564 299.609 196.335 293.52C197.106 287.431 192.791 281.869 186.695 281.097C180.6 280.324 175.033 284.634 174.262 290.723C173.49 296.812 177.806 302.374 183.901 303.147Z" fill="black" stroke="black" stroke-width="3.5847" stroke-miterlimit="10"/>
<path d="M176.427 289.103C176.505 287.944 176.971 286.805 177.688 285.844C177.865 285.603 178.064 285.375 178.268 285.152C178.48 284.941 178.705 284.74 178.927 284.53C179.161 284.34 179.416 284.173 179.662 283.999L180.451 283.544L181.294 283.203C181.588 283.118 181.873 283.018 182.169 282.953C182.468 282.908 182.767 282.854 183.065 282.814C183.365 282.793 183.669 282.778 183.965 282.786C185.166 282.817 186.347 283.152 187.313 283.8L187.284 283.879C185.175 283.164 182.8 283.321 180.822 284.312C178.825 285.262 177.235 287.033 176.506 289.132L176.427 289.103Z" fill="white"/>
<path d="M169.363 311.951C168.35 309.446 175.006 315.598 183.268 316.728C192.57 318.004 201.511 310.852 202.179 312.51C202.855 314.178 191.82 325.964 183.707 325.536C175.595 325.107 170.032 313.604 169.363 311.951Z" fill="#1431C1"/>
<path d="M175.45 317.905C171.556 314.002 178.645 318.31 183.949 318.855C189.922 319.466 195.433 317.11 196.029 317.103C196.98 317.097 189.217 323.648 184.02 323.374C178.823 323.1 175.999 318.456 175.45 317.905Z" fill="white" stroke="white" stroke-width="1.2444" stroke-miterlimit="10"/>
</g>
<line x1="81.9106" y1="470.642" x2="260.297" y2="470.642" stroke="#121212" stroke-width="2"/>
<line x1="80.0332" y1="487.471" x2="262.176" y2="487.471" stroke="#121212" stroke-width="2"/>
<path d="M25.0583 515.932C39.4747 497.09 79.8153 496.475 79.8153 496.475C79.8153 496.475 77.2558 543.898 80.0412 545.029C82.8265 546.16 56.6709 542.022 49.8432 552.004C46.6298 556.703 49.2549 556.267 45.8664 566.027C42.478 575.787 8.67829 602.062 8.67829 602.062C8.67829 602.062 10.6419 534.774 25.0583 515.932Z" fill="#ECF3FF" stroke="black" stroke-width="2"/>
<path d="M317.641 516.103C303.455 497.087 262.178 496.586 262.178 496.586C262.178 496.586 265.149 543.371 262.351 544.468C259.552 545.565 285.715 541.806 292.42 551.871C295.576 556.608 292.957 556.14 296.226 565.941C299.496 575.741 332.973 602.425 332.973 602.425C332.973 602.425 331.827 535.118 317.641 516.103Z" fill="#ECF3FF" stroke="black" stroke-width="2"/>
<path d="M178.554 549.498C178.554 564.24 177.61 577.565 176.091 587.183C175.331 592.001 174.433 595.843 173.456 598.459C172.966 599.772 172.477 600.717 172.015 601.316C171.539 601.934 171.227 602.014 171.104 602.014C170.981 602.014 170.67 601.934 170.193 601.316C169.731 600.717 169.242 599.772 168.752 598.459C167.776 595.843 166.878 592.001 166.117 587.183C164.598 577.565 163.654 564.24 163.654 549.498C163.654 534.755 164.598 521.431 166.117 511.812C166.878 506.995 167.776 503.153 168.752 500.537C169.242 499.224 169.731 498.278 170.193 497.68C170.67 497.062 170.981 496.982 171.104 496.982C171.227 496.982 171.539 497.062 172.015 497.68C172.477 498.278 172.966 499.224 173.456 500.537C174.433 503.153 175.331 506.995 176.091 511.812C177.61 521.431 178.554 534.755 178.554 549.498Z" fill="#ECF3FF" stroke="black" stroke-width="2"/>
<g clip-path="url(#clip1_832_9218)">
<path d="M142.585 424.627H137.756V449.926H142.585V424.627Z" fill="#2255EA"/>
<path d="M161.322 433.926C160.694 432.935 159.821 432.123 158.787 431.567C157.737 430.999 156.538 430.715 155.19 430.715C153.625 430.699 152.087 431.126 150.755 431.945C149.419 432.766 148.357 433.911 147.568 435.381C146.78 436.851 146.386 438.532 146.385 440.422C146.385 442.314 146.779 444 147.566 445.481C148.354 446.962 149.416 448.119 150.753 448.951C152.082 449.782 153.621 450.215 155.188 450.2C156.536 450.2 157.73 449.892 158.771 449.277C159.817 448.655 160.693 447.786 161.323 446.746V449.926H166.118V430.987H161.322V433.926ZM160.603 443.465C160.169 444.262 159.523 444.925 158.736 445.379C157.991 445.807 157.146 446.031 156.286 446.028C155.438 446.028 154.605 445.804 153.872 445.379C153.107 444.947 152.484 444.303 152.005 443.446C151.525 442.59 151.285 441.581 151.285 440.421C151.285 439.261 151.525 438.263 152.005 437.425C152.443 436.635 153.088 435.98 153.872 435.528C154.605 435.104 155.438 434.88 156.286 434.879C157.146 434.877 157.991 435.101 158.736 435.528C159.522 435.983 160.168 436.646 160.603 437.443C161.082 438.286 161.321 439.29 161.322 440.452C161.323 441.614 161.083 442.618 160.603 443.465Z" fill="#2255EA"/>
<path d="M170.296 434.918H178.312L170.296 445.961V449.926H183.896V445.961H175.915L183.896 434.918V430.987H170.296V434.918Z" fill="#2255EA"/>
<path d="M116.237 442.607C114.978 441.088 114.375 439.132 114.561 437.169C114.747 435.207 115.706 433.398 117.228 432.141C118.75 430.885 120.71 430.283 122.677 430.469C124.643 430.654 126.455 431.612 127.714 433.131C127.755 433.176 127.793 433.224 127.828 433.274H133.578C132.71 430.883 131.266 429.026 129.248 427.702C127.225 426.386 124.913 425.72 122.312 425.72C122.144 425.72 121.978 425.72 121.813 425.73L121.663 425.737C121.544 425.742 121.424 425.749 121.306 425.758C121.254 425.758 121.203 425.765 121.153 425.769C121.002 425.782 120.851 425.797 120.701 425.815H120.667C120.509 425.834 120.351 425.856 120.194 425.882L120.047 425.907C119.933 425.927 119.818 425.948 119.705 425.97L119.561 426C119.409 426.033 119.257 426.067 119.108 426.105H119.098C118.94 426.145 118.782 426.19 118.627 426.236L118.53 426.266C118.397 426.307 118.264 426.349 118.134 426.395L118.089 426.409C117.415 426.644 116.763 426.938 116.14 427.288C114.291 428.312 112.758 429.821 111.708 431.652C110.621 433.511 110.077 435.602 110.077 437.925C110.077 440.273 110.621 442.376 111.708 444.234C112.277 445.224 112.993 446.122 113.83 446.9L115.101 445.152C115.146 445.09 115.204 445.038 115.271 445.001C115.338 444.963 115.412 444.941 115.489 444.936L115.932 444.903C115.976 444.899 116.019 444.886 116.057 444.865C116.096 444.844 116.129 444.814 116.156 444.779L117.09 443.495C116.78 443.224 116.495 442.927 116.237 442.607Z" fill="#2255EA"/>
<path d="M120.832 440.386H128.781V440.401C128.625 441.314 128.214 442.166 127.597 442.859C126.606 443.977 125.301 444.771 123.85 445.137C122.4 445.503 120.873 445.424 119.469 444.91C119.469 444.91 119.461 444.91 119.457 444.91L118.378 446.388C118.352 446.423 118.334 446.464 118.326 446.507C118.318 446.55 118.319 446.594 118.329 446.636L118.436 447.068C118.455 447.142 118.457 447.22 118.442 447.295C118.428 447.37 118.397 447.441 118.352 447.503L117.19 449.098C118.805 449.792 120.547 450.143 122.306 450.13C124.361 450.13 126.223 449.669 127.905 448.747C128.099 448.64 128.287 448.53 128.469 448.416C128.572 448.352 128.671 448.286 128.772 448.223C128.852 448.17 128.933 448.118 129.013 448.064C129.119 447.99 129.224 447.914 129.327 447.837C129.396 447.786 129.466 447.741 129.534 447.684C129.637 447.605 129.739 447.523 129.839 447.441C129.874 447.412 129.911 447.384 129.946 447.355H129.936C130.719 446.704 131.412 445.952 131.998 445.12C133.047 443.628 133.697 442.05 133.948 440.385V436.732H120.832V440.386Z" fill="#2255EA"/>
<path d="M113.464 452.736C114.225 452.517 114.664 451.724 114.445 450.965C114.226 450.205 113.431 449.767 112.67 449.986C111.909 450.205 111.47 450.998 111.689 451.757C111.909 452.517 112.703 452.955 113.464 452.736Z" fill="#2255EA"/>
<path d="M206.984 436.729H197.529V440.386H205.475C205.198 442.028 204.495 443.333 203.368 444.301C202.24 445.27 200.785 445.755 199.003 445.757C197.561 445.757 196.292 445.43 195.183 444.783C194.074 444.131 193.175 443.175 192.594 442.028C191.977 440.843 191.669 439.476 191.671 437.926C191.672 436.376 191.98 435.008 192.594 433.824C193.171 432.679 194.071 431.728 195.183 431.089C196.291 430.449 197.561 430.135 199.003 430.135C201.585 430.135 203.412 431.183 204.483 433.279H210.27C209.401 430.886 207.957 429.028 205.936 427.706C204.938 427.051 203.847 426.55 202.699 426.222C201.497 425.883 200.253 425.715 199.004 425.723C198.833 425.723 198.663 425.723 198.494 425.734L198.349 425.739C198.217 425.746 198.086 425.754 197.961 425.763L197.833 425.773C197.667 425.788 197.501 425.805 197.337 425.825L197.252 425.837C197.113 425.855 196.975 425.876 196.838 425.899C196.792 425.906 196.741 425.914 196.7 425.922C196.561 425.946 196.423 425.973 196.285 426.002L196.212 426.017C196.049 426.052 195.888 426.091 195.728 426.134L195.631 426.16C195.499 426.195 195.367 426.233 195.237 426.274L195.13 426.307C194.337 426.557 193.572 426.887 192.847 427.293C190.997 428.316 189.461 429.824 188.406 431.653C187.318 433.51 186.775 435.601 186.776 437.926C186.776 440.275 187.32 442.378 188.406 444.234C189.221 445.653 190.334 446.881 191.668 447.831C191.67 447.83 191.673 447.83 191.676 447.831C192.048 448.1 192.436 448.347 192.837 448.571C194.709 449.608 196.765 450.128 199.003 450.128C201.058 450.128 202.924 449.666 204.602 448.742C205.459 448.272 206.258 447.705 206.984 447.053V449.819H210.648V436.725H206.984V436.729Z" fill="#2255EA"/>
<path d="M116.088 437.854C116.5 436.292 117.419 434.911 118.7 433.925C119.982 432.939 121.554 432.405 123.172 432.405C123.668 432.405 124.163 432.454 124.65 432.551C123.744 432.12 122.745 431.924 121.743 431.979C120.742 432.035 119.77 432.34 118.918 432.868C118.065 433.396 117.36 434.129 116.865 435C116.371 435.871 116.103 436.852 116.088 437.853V437.854Z" fill="#2255EA"/>
<path d="M232.117 446.444C232.117 446.444 232.117 446.444 232.11 446.444C232.326 446.156 232.526 445.857 232.707 445.546C233.576 444.064 234.01 442.355 234.009 440.418C234.009 438.481 233.574 436.777 232.707 435.307C231.872 433.867 230.651 432.688 229.182 431.904C227.697 431.109 226.051 430.71 224.244 430.707C222.416 430.707 220.76 431.106 219.278 431.904C218.206 432.475 217.262 433.26 216.506 434.209C216.228 434.557 215.975 434.924 215.749 435.307C214.884 436.78 214.451 438.485 214.451 440.422C214.451 442.358 214.88 444.068 215.738 445.55C216.562 447 217.778 448.191 219.247 448.984C220.731 449.795 222.377 450.2 224.185 450.2C226.013 450.2 227.673 449.795 229.167 448.984C230.325 448.366 231.331 447.5 232.114 446.448L232.998 446.13C232.715 446.222 232.424 446.329 232.117 446.444ZM220.58 444.457C220.556 444.425 220.532 444.397 220.512 444.369C220.472 444.318 220.436 444.266 220.4 444.215L220.392 444.206C220.253 444.008 220.128 443.801 220.017 443.586C219.572 442.731 219.348 441.686 219.348 440.457C219.348 438.633 219.817 437.231 220.755 436.252C221.693 435.273 222.847 434.783 224.216 434.781C225.062 434.776 225.895 434.995 226.629 435.414C226.959 435.602 227.261 435.833 227.529 436.101C227.887 436.464 228.189 436.878 228.425 437.329C228.884 438.185 229.112 439.228 229.11 440.457C229.11 441.666 228.88 442.695 228.41 443.55C227.94 444.404 227.33 445.047 226.577 445.482C225.849 445.904 225.023 446.127 224.182 446.13C223.34 446.133 222.513 445.915 221.783 445.498C221.347 445.245 220.96 444.918 220.639 444.531C220.62 444.504 220.599 444.48 220.58 444.457Z" fill="#2255EA"/>
</g>
<defs>
<clipPath id="clip0_832_9218">
<rect width="101.754" height="215.295" fill="white" transform="translate(140.525 237.672) rotate(7.2208)"/>
</clipPath>
<clipPath id="clip1_832_9218">
<rect width="123.932" height="28.1663" fill="white" transform="translate(110.077 424.627)"/>
</clipPath>
</defs>
</svg>
