<svg width="213" height="294" viewBox="0 0 213 294" fill="none" xmlns="http://www.w3.org/2000/svg">
<g clip-path="url(#clip0_1567_22286)">
<path opacity="0.2" d="M169.751 147.151C146.731 79.6412 171.932 92.548 137.556 59.5989C119.768 42.5405 85.1616 30.68 66.9462 35.9156C50.0995 40.7577 41.1843 55.7402 36.5802 80.4322C31.2563 108.991 8.98089 89.2794 1.42183 110.565C-4.89412 128.347 11.6429 144.229 15.6526 151.16C29.6951 175.433 36.8732 189.148 37.6392 202.611C38.5349 218.33 32.3947 211.864 18.1639 234.861C8.66698 250.208 21.2277 279.47 42.8585 284.664C69.3529 291.021 115.36 300.839 123.388 285.338C133.998 264.831 197.212 301.241 165.076 239.465C157.165 224.265 131.215 202.419 141.218 179.2C146.986 165.816 175.54 164.134 169.751 147.151Z" fill="#A9ADB3" stroke="#A9ADB3" stroke-width="0.811088" stroke-miterlimit="10"/>
<path d="M168.709 44.001L194.919 59.649L163.151 83.0729L131.387 106.497L136.941 67.4249L142.499 28.353L168.709 44.001Z" fill="#2255EA"/>
<mask id="mask0_1567_22286" style="mask-type:luminance" maskUnits="userSpaceOnUse" x="132" y="24" width="65" height="82">
<path d="M170.195 41.0107L196.722 57.5648L164.54 81.3215L132.354 105.078L138.009 64.7673L143.664 24.4565L170.195 41.0107Z" fill="white"/>
</mask>
<g mask="url(#mask0_1567_22286)">
<path d="M190.577 70.9396L137.274 38.4425L141.77 30.6499L195.072 63.147L190.577 70.9396Z" fill="#489FEC"/>
<path d="M179.184 90.7814L125.882 58.2843L130.381 50.4917L183.68 82.9888L179.184 90.7814Z" fill="#489FEC"/>
<path d="M186.145 78.8579L132.847 46.3608L134.115 44.1553L187.418 76.6524L186.145 78.8579Z" fill="#489FEC"/>
<path d="M174.383 98.7286L121.085 66.2315L123.513 62.0171L176.815 94.5142L174.383 98.7286Z" fill="#489FEC"/>
<path d="M169.767 105.91L116.469 73.413L117.892 70.9438L171.194 103.441L169.767 105.91Z" fill="#489FEC"/>
</g>
<path d="M206.676 21.5776C206.383 21.2804 201.256 16.137 199.795 17.1916C198.907 17.8194 201.841 21.6948 200.678 23.08C199.728 24.21 196.564 23.1679 193.562 21.8245" stroke="#2255EA" stroke-width="0.89825" stroke-miterlimit="10"/>
<path d="M138.104 30.027C138.003 29.6085 136.229 22.5902 134.442 22.7366C133.358 22.8203 133.893 27.6541 132.181 28.2442C130.788 28.7297 128.603 26.2102 126.711 23.536" stroke="#2255EA" stroke-width="0.300224" stroke-miterlimit="10"/>
<path d="M154.863 12.5166C154.554 12.9058 149.188 19.6689 150.615 21.255C151.486 22.2176 155.663 18.2167 157.463 19.4052C158.927 20.372 158.128 24.2599 156.964 27.9846" stroke="#2255EA" stroke-width="0.305066" stroke-miterlimit="10"/>
<path d="M141.428 16.3295C142.368 15.8089 143.197 15.1081 143.867 14.267C144.537 13.426 145.035 12.4612 145.332 11.4278C145.629 10.3944 145.719 9.31268 145.598 8.24435C145.477 7.17601 145.146 6.14202 144.625 5.20143C144.209 4.44875 143.648 3.78544 142.976 3.24937C142.303 2.7133 141.531 2.31498 140.705 2.07714C139.878 1.83931 139.012 1.76661 138.158 1.86322C137.303 1.95982 136.475 2.22383 135.723 2.64016C134.509 3.31318 133.611 4.44033 133.228 5.77419C132.844 7.10806 133.005 8.53967 133.676 9.75479C133.942 10.2371 134.3 10.6623 134.73 11.0059C135.161 11.3495 135.655 11.6048 136.184 11.7572C136.713 11.9096 137.267 11.9561 137.814 11.894C138.361 11.8319 138.891 11.6624 139.372 11.3953C139.759 11.1826 140.099 10.8956 140.374 10.5509C140.65 10.2062 140.854 9.81056 140.976 9.38668C141.097 8.9628 141.134 8.51905 141.084 8.08091C141.034 7.64278 140.897 7.2189 140.683 6.83361C140.338 6.21168 139.76 5.75212 139.076 5.55593C138.393 5.35974 137.659 5.44297 137.037 5.78734C136.788 5.9236 136.57 6.10778 136.393 6.32922C136.216 6.55066 136.085 6.80497 136.007 7.07743C135.929 7.34988 135.906 7.63506 135.939 7.91648C135.972 8.19789 136.061 8.46995 136.2 8.71689C136.309 8.91423 136.455 9.08816 136.631 9.22869C136.808 9.36922 137.01 9.47358 137.226 9.53579C137.443 9.59801 137.67 9.61684 137.894 9.59122C138.118 9.5656 138.334 9.49603 138.531 9.3865C138.85 9.21001 139.085 8.91452 139.187 8.5647C139.288 8.21489 139.246 7.83924 139.071 7.51996C139.001 7.39431 138.906 7.28381 138.793 7.19477C138.679 7.10572 138.55 7.03988 138.411 7.00102C138.272 6.96215 138.127 6.95101 137.984 6.96824C137.841 6.98548 137.702 7.03074 137.577 7.10145" stroke="#2255EA" stroke-width="0.598026" stroke-miterlimit="10"/>
<path d="M195.187 46.2902C195.262 45.3679 195.519 44.4695 195.941 43.6463C196.364 42.8231 196.945 42.0914 197.651 41.4928C198.357 40.8943 199.174 40.4407 200.055 40.158C200.937 39.8753 201.865 39.769 202.787 39.8452C204.273 39.9679 205.65 40.6747 206.616 41.8106C207.582 42.9465 208.058 44.419 207.94 45.9052C207.842 47.0971 207.274 48.2013 206.362 48.9751C205.45 49.7489 204.268 50.1289 203.076 50.0317C202.123 49.9528 201.24 49.4984 200.621 48.7686C200.003 48.0387 199.699 47.093 199.778 46.1396C199.809 45.7619 199.914 45.3941 200.088 45.0572C200.261 44.7202 200.499 44.4208 200.789 44.1759C201.078 43.9311 201.412 43.7456 201.773 43.6301C202.134 43.5146 202.514 43.4714 202.892 43.503C203.499 43.5572 204.06 43.8496 204.452 44.3163C204.844 44.7829 205.036 45.3857 204.985 45.9931C204.941 46.4787 204.707 46.9272 204.334 47.2409C203.961 47.5545 203.478 47.7078 202.993 47.6671C202.799 47.6513 202.611 47.5975 202.438 47.5087C202.265 47.42 202.112 47.2981 201.986 47.15C201.86 47.002 201.765 46.8306 201.706 46.6457C201.647 46.4608 201.625 46.2661 201.641 46.0726C201.667 45.7604 201.817 45.4714 202.056 45.2691C202.295 45.0667 202.605 44.9674 202.917 44.9929C203.041 45.0029 203.162 45.0373 203.273 45.0941C203.383 45.1508 203.482 45.2289 203.562 45.3237C203.643 45.4186 203.704 45.5284 203.742 45.6468C203.78 45.7653 203.794 45.8901 203.784 46.014" stroke="#2255EA" stroke-width="0.300224" stroke-miterlimit="10"/>
<path d="M172.676 12.7804C174.461 12.2339 175.956 11.0011 176.832 9.35305C177.708 7.70498 177.893 5.77656 177.347 3.99176C177.131 3.28353 176.778 2.62483 176.307 2.05327C175.836 1.48172 175.257 1.00851 174.603 0.660674C173.95 0.312841 173.234 0.0972011 172.497 0.0260704C171.759 -0.0450604 171.016 0.0297125 170.307 0.246118C169.741 0.419604 169.215 0.702962 168.758 1.08C168.301 1.45704 167.923 1.92036 167.646 2.4435C167.368 2.96663 167.196 3.53932 167.14 4.12884C167.084 4.71836 167.145 5.31315 167.319 5.87923C167.601 6.79315 168.234 7.55799 169.079 8.00598C169.924 8.45397 170.912 8.54852 171.827 8.2689C172.558 8.04399 173.17 7.53828 173.528 6.86274C173.887 6.1872 173.963 5.39701 173.739 4.66555C173.559 4.08092 173.154 3.59156 172.614 3.30452C172.073 3.01747 171.441 2.9561 170.856 3.13382C170.388 3.27769 169.996 3.6012 169.766 4.03343C169.536 4.46567 169.487 4.97139 169.629 5.43979C169.686 5.62528 169.779 5.79776 169.903 5.94736C170.026 6.09696 170.178 6.22077 170.349 6.31171C170.521 6.40264 170.708 6.45894 170.902 6.47736C171.095 6.49579 171.29 6.47599 171.475 6.4191" stroke="#2255EA" stroke-width="0.300224" stroke-miterlimit="10"/>
<path d="M167.537 26.5869C168.3 27.2647 168.922 28.0862 169.367 29.0045C169.813 29.9228 170.072 30.9199 170.132 31.9387C170.191 32.9575 170.049 33.978 169.714 34.9419C169.379 35.9058 168.857 36.7941 168.177 37.556" stroke="#2255EA" stroke-width="1.19847" stroke-miterlimit="10"/>
<path d="M195.969 66.5293C196.424 66.9339 196.796 67.4243 197.062 67.9726C197.328 68.5208 197.483 69.1161 197.519 69.7243C197.555 70.3326 197.47 70.942 197.27 71.5176C197.07 72.0932 196.759 72.6237 196.354 73.0789" stroke="#2255EA" stroke-width="0.716663" stroke-miterlimit="10"/>
<path d="M177.063 38.6608C184.124 34.5678 191.114 33.4587 192.692 36.1832" stroke="#2255EA" stroke-width="0.598026" stroke-miterlimit="10"/>
<path d="M201.159 58.6865C208.45 60.733 213.716 64.667 212.921 67.4752" stroke="#2255EA" stroke-width="0.743296" stroke-miterlimit="10"/>
<path d="M178.679 29.1648C183.032 26.796 184.392 20.9034 181.717 15.9985" stroke="#2255EA" stroke-width="0.89825" stroke-miterlimit="10"/>
<path d="M129.08 40.2302L133.236 39.4727" stroke="#2255EA" stroke-width="0.743296" stroke-miterlimit="10"/>
<path d="M151.577 26.5073L153.205 30.4078" stroke="#2255EA" stroke-width="0.743296" stroke-miterlimit="10"/>
<path d="M159.865 4.24268L162.745 11.2317" stroke="#2255EA" stroke-width="0.743296" stroke-miterlimit="10"/>
<path d="M202.624 31.4165L210.43 32.061" stroke="#2255EA" stroke-width="0.598026" stroke-miterlimit="10"/>
<path d="M182.031 46.7589L189.59 44.6831" stroke="#2255EA" stroke-width="0.598026" stroke-miterlimit="10"/>
<path d="M110.953 158.823C117.189 159.714 119.969 156.893 122.346 153.127C128.562 143.288 133.53 131.205 134.777 126.715C145.136 89.4298 153.424 111.192 138.917 147.431C122.739 187.863 104.763 173.981 109.915 193.002C116.645 217.857 117.164 238.054 113.021 276.896C112.071 285.785 106.809 286.794 106.286 280.001C102.662 232.877 98.5053 227.688 92.8213 227.688C87.9996 227.688 78.3185 237.531 72.103 280.512C71.4793 284.852 67.4445 286.727 66.4065 279.474C63.6984 260.507 65.6991 247.881 65.8917 244.78C68.4783 202.314 73.66 204.385 73.66 190.403C73.66 178.907 62.7776 179.522 49.317 156.224C22.8017 110.355 36.3712 95.1257 50.355 135.001C59.0274 159.731 71.0733 157.789 74.179 156.763C77.1089 155.78 78.5822 151.068 79.6202 147.975C80.4364 145.522 81.1312 145.388 82.2068 145.388H99.8195C102.406 145.388 102.046 148.397 102.406 150.565C102.666 152.089 103.704 157.789 110.953 158.823Z" fill="#489FEC"/>
<path d="M94.9975 154.943L91.3187 151.264C90.6044 150.55 89.4463 150.55 88.732 151.264L85.0532 154.943C84.3389 155.657 84.3389 156.815 85.0532 157.529L88.732 161.208C89.4463 161.922 90.6044 161.922 91.3187 161.208L94.9975 157.529C95.7118 156.815 95.7118 155.657 94.9975 154.943Z" fill="black" stroke="black" stroke-width="0.394649" stroke-miterlimit="10"/>
<path d="M89.7408 198.33L81.1563 168.817C81.1218 168.703 81.1187 168.582 81.1474 168.466C81.1762 168.35 81.2356 168.245 81.3195 168.16L89.5943 159.886C89.6594 159.823 89.7363 159.774 89.8206 159.742C89.9048 159.709 89.9947 159.693 90.0851 159.696C90.1754 159.698 90.2644 159.718 90.3469 159.755C90.4293 159.792 90.5036 159.845 90.5654 159.911L98.7355 168.11C98.8248 168.195 98.8897 168.303 98.9235 168.423C98.9573 168.542 98.9589 168.668 98.928 168.788L91.076 198.397C91.0332 198.546 90.9414 198.676 90.8154 198.766C90.6893 198.856 90.5365 198.901 90.3818 198.893C90.2271 198.885 90.0796 198.826 89.9632 198.723C89.8468 198.621 89.7684 198.483 89.7408 198.33Z" fill="black" stroke="black" stroke-width="0.566551" stroke-miterlimit="10"/>
<path d="M76.6524 83.6046L73.0821 79.1433C69.5663 74.7448 67.5488 71.7273 62.9782 68.9317C60.8101 67.6092 57.9096 66.0022 56.1726 65.9645C53.3599 65.9185 53.1297 68.4002 53.925 70.3672C54.6692 72.1001 55.8681 73.5996 57.3947 74.7071C58.6713 75.5692 61.5049 76.4272 63.3256 76.2974C64.3762 76.2221 66.5108 76.2598 67.1847 76.2723C68.3148 76.2723 69.2063 77.4525 70.1146 78.5281L75.6102 86.2454L76.6524 83.6046Z" fill="black" stroke="black" stroke-width="0.29296" stroke-miterlimit="10"/>
<path d="M89.7617 79.2476L91.5155 74.1377C93.2399 69.1156 94.0477 65.7675 97.3752 61.8838C98.9531 60.0423 101.121 57.6987 102.77 57.1756C105.432 56.3009 106.575 58.4813 106.537 60.5027C106.468 62.2883 105.876 64.0142 104.834 65.4662C103.934 66.6296 101.548 68.2451 99.7609 68.6678C98.7355 68.9105 96.7097 69.5759 96.0693 69.7894C95.002 70.1409 94.5834 71.4634 94.1272 72.7189L91.6578 80.6078L89.7617 79.2476Z" fill="black" stroke="black" stroke-width="0.290539" stroke-miterlimit="10"/>
<path d="M56.3109 119.429C52.4434 97.6665 77.6194 85.3707 81.2106 78.7876C83.1443 75.2428 84.7264 75.2345 87.6102 77.7246C92.8589 82.2528 123.656 85.6135 125.782 109.728C127.574 130.025 114.975 145.887 95.8055 148.565C76.6358 151.244 59.6258 138.09 56.3109 119.429Z" fill="#489FEC"/>
<path d="M77.7578 90.5892C86.3507 85.5672 83.245 85.0273 96.5006 87.2412" stroke="black" stroke-width="1.4987" stroke-miterlimit="10" stroke-linecap="round"/>
<path d="M80.281 135.466C79.2053 133.758 85.3037 137.559 92.2014 137.559C99.9865 137.559 106.658 131.503 107.37 132.633C108.081 133.763 100.141 143.393 93.4194 143.886C86.6974 144.38 80.9926 136.596 80.281 135.466Z" fill="white" stroke="black" stroke-width="0.653713" stroke-miterlimit="10"/>
<path d="M90.9298 132.515C102.086 132.515 111.129 123.531 111.129 112.448C111.129 101.365 102.086 92.3804 90.9298 92.3804C79.774 92.3804 70.7305 101.365 70.7305 112.448C70.7305 123.531 79.774 132.515 90.9298 132.515Z" fill="white" stroke="black" stroke-width="0.89825" stroke-miterlimit="10"/>
<path d="M90.9296 125.262C97.5084 125.262 102.842 119.93 102.842 113.352C102.842 106.774 97.5084 101.441 90.9296 101.441C84.3508 101.441 79.0176 106.774 79.0176 113.352C79.0176 119.93 84.3508 125.262 90.9296 125.262Z" fill="black" stroke="black" stroke-width="1.07499" stroke-miterlimit="10"/>
<path d="M81.5745 113.49C81.5149 111.942 81.8935 110.409 82.6669 109.067C82.8594 108.723 83.0854 108.397 83.3031 108.075C83.5207 107.752 83.8011 107.468 84.0565 107.162C84.3118 106.857 84.6341 106.622 84.9229 106.35L85.8688 105.635L86.9026 105.053C87.2668 104.898 87.6225 104.718 87.9909 104.584C88.3592 104.45 88.7484 104.354 89.1293 104.258C89.5102 104.162 89.9036 104.111 90.2929 104.074C91.8332 103.897 93.392 104.161 94.7882 104.835L94.763 104.944C91.8939 104.368 88.9133 104.945 86.4657 106.548C84.0181 108.152 82.3002 110.655 81.6833 113.515L81.5745 113.49Z" fill="white"/>
</g>
<defs>
<clipPath id="clip0_1567_22286">
<rect width="213" height="293.629" fill="white"/>
</clipPath>
</defs>
</svg>
