<svg width="125" height="180" viewBox="0 0 125 180" fill="none" xmlns="http://www.w3.org/2000/svg">
<path opacity="0.2" d="M37.8497 177.029C23.0329 175.383 15.8945 168.094 12.8258 164.515C10.8502 162.209 7.88681 155.623 12.1672 145.742C16.7045 135.273 23.0823 130.547 15.7891 122.689C7.22829 113.468 7.88681 115.114 4.10029 107.704C-0.427069 98.8451 1.21924 89.2351 1.63082 87.4501C4.59419 74.606 8.54534 68.6779 16.1184 59.4565C25.1336 48.4797 27.5767 47.8771 32.5815 43.6484C58.0994 22.0769 66.9072 49.5764 73.0808 53.8578C79.5311 58.3236 108.615 39.2682 117.861 44.9657C134.159 55.0105 112.82 81.3573 113.086 100.129C113.415 123.183 105 128.416 103.702 129.605C95.9646 136.686 91.1903 140.835 91.5195 146.73C91.885 153.123 101.012 153.581 104.032 161.88C105.349 165.503 104.404 168.918 102.056 172.089C97.3343 178.472 71.3028 180.748 37.8497 177.029Z" fill="#A9ADB3" stroke="#A9ADB3" stroke-width="0.614955" stroke-miterlimit="10"/>
<path d="M49.4145 22.2846L48.1336 18.7212C46.8726 15.2138 46.3293 12.859 43.6326 10.2836C42.3518 9.0618 40.5837 7.53697 39.1843 7.26033C36.9222 6.81244 35.8357 8.46241 35.7665 9.91807C35.7426 11.1894 36.1921 12.4243 37.0276 13.3827C37.752 14.1599 39.7374 15.1611 41.2652 15.3587C42.1444 15.4641 43.8598 15.8033 44.4031 15.912C45.3152 16.0931 45.6148 17.0153 45.9506 17.888L47.5969 23.9478L49.4145 22.2846Z" fill="black" stroke="black" stroke-width="0.220282" stroke-miterlimit="10"/>
<path d="M63.6289 18.0722L64.159 14.3211C64.6825 10.6325 64.7385 8.21848 66.859 5.14578C67.8468 3.69011 69.2856 1.85242 70.5994 1.28267C72.7231 0.386875 74.1225 1.78326 74.4847 3.19282C74.7725 4.43004 74.5882 5.73017 73.9678 6.83856C73.4179 7.74424 71.6629 9.14391 70.2175 9.61816C69.3778 9.89809 67.7644 10.5798 67.2541 10.7972C66.4013 11.1562 66.2926 12.1145 66.1379 13.0334L65.5222 18.8L63.6289 18.0722Z" fill="black" stroke="black" stroke-width="0.220282" stroke-miterlimit="10"/>
<path d="M36.0106 48.0314C33.0472 31.3967 52.2794 22.0139 55.0222 16.9915C56.4973 14.2844 57.7057 14.2778 59.9084 16.1781C63.9156 19.6361 87.4315 22.2016 89.0548 40.6247C90.4212 56.1364 80.8397 68.5095 66.1546 70.2879C50.4454 72.1882 38.5393 62.2851 36.0106 48.0314Z" fill="#489FEC"/>
<path d="M52.3867 24.8173C53.1579 23.7085 54.1399 22.7625 55.2768 22.0336C56.4137 21.3046 57.683 20.8069 59.0123 20.569C60.3416 20.331 61.7047 20.3574 63.0238 20.6467C64.3429 20.9361 65.592 21.4826 66.6998 22.255" stroke="black" stroke-width="1.10325" stroke-miterlimit="10" stroke-linecap="round"/>
<path d="M63.0984 55.5769C71.6161 55.5769 78.5211 48.7147 78.5211 40.2496C78.5211 31.7846 71.6161 24.9224 63.0984 24.9224C54.5807 24.9224 47.6758 31.7846 47.6758 40.2496C47.6758 48.7147 54.5807 55.5769 63.0984 55.5769Z" fill="white" stroke="black" stroke-width="0.660847" stroke-miterlimit="10"/>
<path d="M63.1001 50.0372C68.1227 50.0372 72.1943 45.9647 72.1943 40.941C72.1943 35.9173 68.1227 31.8447 63.1001 31.8447C58.0775 31.8447 54.0059 35.9173 54.0059 40.941C54.0059 45.9647 58.0775 50.0372 63.1001 50.0372Z" fill="black" stroke="black" stroke-width="0.791181" stroke-miterlimit="10"/>
<path d="M55.9422 41.0465C55.8962 39.8623 56.1874 38.6893 56.7818 37.6642C56.9267 37.404 57.0946 37.157 57.2659 36.9067C57.4371 36.6564 57.6478 36.4456 57.8388 36.2118C58.0297 35.978 58.28 35.8001 58.4973 35.5927L59.2217 35.046L60.0119 34.6014C60.2885 34.4828 60.5585 34.3445 60.8416 34.2424C61.1248 34.1403 61.4211 34.0678 61.7109 33.9954C62.0007 33.9229 62.3003 33.8834 62.5966 33.8538C63.7731 33.7179 64.964 33.9189 66.0308 34.4334L66.0111 34.5157C63.8205 34.0779 61.5457 34.519 59.6774 35.7439C57.8091 36.9687 56.4971 38.8792 56.0245 41.0629L55.9422 41.0465Z" fill="white"/>
<path d="M78.7204 76.934C84.6142 82.8291 87.222 83.659 88.8057 83.2638C90.3895 82.8686 95.0255 77.9088 99.4837 70.6042C113.718 47.2674 119.651 51.2228 108.973 71.7931C89.1547 109.97 80.1066 88.4048 77.7326 101.446C72.5665 129.865 76.4156 153.686 75.1611 169.477C74.3708 179.357 70.0311 176.565 69.4286 171.878C66.0668 145.745 65.2634 130.711 60.927 130.711C57.2426 130.711 53.0247 140.591 48.2702 173.429C47.7927 176.746 44.7108 176.199 43.9206 170.663C40.4535 146.381 41.1515 123.986 49.8473 101.443C53.8841 90.9802 41.8923 89.1952 41.3458 99.0687C38.9718 141.787 30.2727 133.876 34.2271 94.7181C36.2027 74.9778 43.914 76.1271 51.0195 73.3574C54.6414 71.9446 54.9707 72.1718 55.7642 69.7973C56.3898 67.9234 56.9199 67.8213 57.7398 67.8213H71.1836C73.1591 67.8213 71.9738 70.5877 73.1591 71.7733C75.1611 73.7823 77.9302 76.1436 78.7204 76.934Z" fill="#489FEC"/>
<path d="M67.5275 75.1567L64.7219 72.3506C64.1754 71.804 63.2894 71.804 62.7429 72.3506L59.9374 75.1567C59.3909 75.7033 59.3909 76.5895 59.9374 77.1362L62.7429 79.9423C63.2894 80.4889 64.1754 80.4889 64.7219 79.9423L67.5275 77.1362C68.0739 76.5895 68.0739 75.7033 67.5275 75.1567Z" fill="black" stroke="black" stroke-width="0.290038" stroke-miterlimit="10"/>
<path d="M63.5128 108.297L56.944 85.757C56.9172 85.6695 56.9147 85.5765 56.9367 85.4877C56.9588 85.3989 57.0046 85.3178 57.0692 85.2531L63.3877 78.9332C63.4374 78.8855 63.496 78.8482 63.5602 78.8232C63.6243 78.7983 63.6927 78.7862 63.7616 78.7877C63.8304 78.7893 63.8982 78.8043 63.9612 78.8321C64.0241 78.8599 64.081 78.8998 64.1286 78.9496L70.3845 85.207C70.4522 85.2734 70.5013 85.3564 70.5267 85.4478C70.5521 85.5391 70.5531 85.6355 70.5294 85.7273L64.5368 108.343C64.5043 108.457 64.4342 108.556 64.338 108.626C64.2418 108.695 64.125 108.73 64.0066 108.724C63.8882 108.719 63.7751 108.674 63.6855 108.596C63.5959 108.519 63.5351 108.413 63.5128 108.297Z" fill="black" stroke="black" stroke-width="0.416701" stroke-miterlimit="10"/>
<path d="M56.1779 60.5205C53.8072 58.5445 59.8525 60.8795 64.7388 60.0529C70.2473 59.1209 74.4948 56.0416 75.1533 55.6398C77.5273 54.1907 72.4139 63.2145 65.664 63.6854C63.9513 63.8231 62.2284 63.6137 60.5985 63.0699C58.9686 62.5261 57.4651 61.659 56.1779 60.5205Z" fill="white" stroke="black" stroke-width="0.660847" stroke-miterlimit="10"/>
</svg>
