<svg width="64" height="64" viewBox="0 0 64 64" fill="none" xmlns="http://www.w3.org/2000/svg">
<circle cx="32" cy="32" r="32" fill="#2255EA"/>
<path d="M47.8473 38.2494H46.8682V30.4184C46.8682 30.2868 46.826 30.1589 46.7481 30.0542L43.9316 26.269C44.2055 25.9 44.3685 25.4401 44.3685 24.9418C44.3685 23.7307 43.4072 22.7453 42.2256 22.7453C41.044 22.7453 40.0827 23.7307 40.0827 24.9418C40.0827 26.153 41.044 27.1383 42.2256 27.1383C42.4967 27.1383 42.756 27.0858 42.995 26.9912L45.6961 30.6214V38.2494H42.8954V36.5082C42.8954 36.1765 42.633 35.9076 42.3094 35.9076C41.9858 35.9076 41.7235 36.1765 41.7235 36.5082V38.2494H39.1815V33.5472C39.1815 33.2156 38.9192 32.9467 38.5956 32.9467C38.272 32.9467 38.0097 33.2156 38.0097 33.5472V38.2494H34.4624L33.4505 32.1218L33.735 31.6829C33.9869 31.8663 34.2365 31.9964 34.6028 31.9025C34.8689 31.8343 35.0918 31.6508 35.2143 31.3992L36.6438 28.4628L39.908 29.7585C39.997 29.7979 41.7236 30.5923 41.7236 32.6709V33.7053C41.7236 34.037 41.9859 34.3059 42.3095 34.3059C42.6331 34.3059 42.8954 34.037 42.8954 33.7053V32.6709C42.8954 29.7522 40.454 28.6899 40.3501 28.646C40.3465 28.6444 40.3427 28.6429 40.339 28.6415L34.8134 26.4481V25.2426C35.6794 24.534 36.2866 23.5065 36.4618 22.3345C36.8934 22.2843 37.2938 22.11 37.6249 21.8181C38.0898 21.4083 38.3565 20.812 38.3565 20.1822C38.3565 19.6749 38.1834 19.1894 37.8732 18.8057V17.0714C37.8732 13.7236 35.216 11 31.95 11C28.6839 11 26.0267 13.7236 26.0267 17.0714V18.8509C25.7132 19.23 25.5436 19.6923 25.5436 20.1819C25.5436 20.8118 25.8103 21.4082 26.2753 21.818C26.6072 22.1106 27.0088 22.2852 27.4419 22.3348C27.6192 23.4776 28.2232 24.5755 29.181 25.3167V26.448L23.6614 28.6413C23.6577 28.6428 23.6541 28.6443 23.6504 28.6458C23.5464 28.6896 21.1051 29.752 21.1051 32.6706V38.2492H18.3043V30.6212L21.0054 26.991C21.2444 27.0856 21.5037 27.138 21.7749 27.138C22.9565 27.138 23.9178 26.1527 23.9178 24.9415C23.9178 23.7304 22.9564 22.7451 21.7749 22.7451C20.5933 22.7451 19.632 23.7304 19.632 24.9415C19.632 25.4399 19.795 25.8998 20.0688 26.2688L17.2523 30.054C17.1745 30.1586 17.1323 30.2866 17.1323 30.4182V38.2491H16.1533C15.4387 38.2491 14.8574 38.8449 14.8574 39.5774V42.6912C14.8574 43.4231 15.4378 44.0184 16.1516 44.0194V50.7491C16.1516 51.4388 16.699 51.9998 17.3719 51.9998H30.6331C30.9567 51.9998 31.219 51.7309 31.219 51.3993C31.219 51.0676 30.9567 50.7987 30.6331 50.7987H17.3718C17.3452 50.7987 17.3235 50.7765 17.3235 50.7492V44.0196H46.6771V50.7492C46.6771 50.7765 46.6554 50.7987 46.6288 50.7987H33.3675C33.0439 50.7987 32.7816 51.0676 32.7816 51.3993C32.7816 51.7309 33.0439 51.9998 33.3675 51.9998H46.6287C47.3016 51.9998 47.849 51.4388 47.849 50.7491V44.0194C48.5628 44.0184 49.1432 43.4231 49.1432 42.6912V39.5775C49.1432 38.8451 48.5619 38.2494 47.8473 38.2494ZM42.2258 25.9368C41.6904 25.9368 41.2548 25.4904 41.2548 24.9416C41.2548 24.3929 41.6904 23.9464 42.2258 23.9464C42.7611 23.9464 43.1967 24.3929 43.1967 24.9416C43.1967 25.497 42.7497 25.9368 42.2258 25.9368ZM21.7749 23.9465C22.3102 23.9465 22.7458 24.3929 22.7458 24.9417C22.7458 25.4905 22.3102 25.9369 21.7749 25.9369C21.2509 25.9369 20.8039 25.4971 20.8039 24.9417C20.8039 24.3929 21.2395 23.9465 21.7749 23.9465ZM35.5461 28.027L34.2878 30.6118C34.2839 30.6089 33.9077 30.335 32.8457 29.5618C33.8543 28.2857 33.9033 28.2236 34.4139 27.5776L35.5461 28.027ZM31.9988 30.4188L32.7792 30.9868L32.5199 31.3868H31.4777L31.2185 30.9869L31.9988 30.4188ZM30.353 26.6427V25.9649C30.8897 26.1622 31.4695 26.2513 32.0068 26.2513C32.5777 26.2513 33.1505 26.1334 33.6414 25.9368V26.6465L31.9988 28.7249L30.353 26.6427ZM31.6586 32.5881H32.3389L33.2738 38.2492H30.7238L31.6586 32.5881ZM37.1845 20.1819C37.1845 20.4613 37.0665 20.7256 36.8607 20.907C36.7593 20.9964 36.6421 21.0619 36.5139 21.102V19.2627C36.9171 19.3896 37.1845 19.7599 37.1845 20.1819ZM27.3863 21.1021C27.2581 21.062 27.1408 20.9966 27.0396 20.9073C26.8336 20.7259 26.7156 20.4616 26.7156 20.1819C26.7156 19.8712 26.8856 19.6525 27.0052 19.5368C27.0071 19.5351 27.0092 19.5335 27.0111 19.5317C27.1196 19.4286 27.2491 19.3499 27.3863 19.2972V21.1021ZM27.6906 17.6495C27.5766 17.7578 27.4851 17.908 27.4384 18.0469C27.3578 18.0593 27.2779 18.0763 27.1989 18.0975V17.0714C27.1989 14.386 29.3301 12.2013 31.95 12.2013C34.57 12.2013 36.7014 14.386 36.7014 17.0714V18.0696C36.6395 18.0552 36.5767 18.044 36.5132 18.0351C36.5072 17.8221 36.4577 17.6933 36.2629 17.4508C36.0821 17.2259 35.7561 16.8818 35.0078 16.0574C34.696 15.7139 34.1847 15.6434 33.7933 15.9056C32.1941 16.9764 30.2314 17.5269 28.4066 17.3929C28.1449 17.3725 27.8838 17.466 27.6906 17.6495ZM28.5582 21.6317V18.636V18.605C29.6607 18.6547 30.7894 18.4904 31.8615 18.1487C32.7056 17.8798 33.5233 17.4984 34.276 17.0148C34.4904 17.2506 34.6673 17.4438 34.8132 17.6033C34.8231 17.6141 34.8323 17.6242 34.8419 17.6347C34.8943 17.6919 34.9443 17.7467 34.991 17.7978C35.151 17.973 35.2745 18.1098 35.3418 18.1902V21.6317C35.3418 23.519 33.8398 25.0501 32.0067 25.0501C29.9828 25.0501 28.5582 23.4539 28.5582 21.6317ZM29.5813 27.5784L31.15 29.5633C30.4715 30.0572 29.7829 30.5586 29.7097 30.612L28.4514 28.027L29.5813 27.5784ZM22.277 32.6707C22.277 30.5951 23.9839 29.8064 24.0928 29.7583L27.3535 28.4625L28.783 31.3991C28.9437 31.7289 29.2705 31.9311 29.6224 31.9311C29.945 31.9311 30.1353 31.7752 30.2623 31.6827L30.5468 32.1216L29.5349 38.2492H25.991V33.547C25.991 33.2153 25.7286 32.9464 25.405 32.9464C25.0814 32.9464 24.8191 33.2153 24.8191 33.547V38.2492H22.277L22.277 32.6707ZM47.9712 42.6914C47.9712 42.7614 47.9157 42.8184 47.8473 42.8184C47.009 42.8184 16.8619 42.8184 16.1532 42.8184C16.0848 42.8184 16.0293 42.7614 16.0293 42.6914V39.5775C16.0293 39.5075 16.0848 39.4505 16.1532 39.4505C17.1904 39.4505 47.0644 39.4505 47.8473 39.4505C47.9157 39.4505 47.9712 39.5075 47.9712 39.5775V42.6914Z" fill="white"/>
</svg>
