<svg width="24" height="24" viewBox="0 0 24 24" fill="none" xmlns="http://www.w3.org/2000/svg">
<path d="M8.50182 4.5L8.50263 4.5C8.5247 4.49996 8.5465 4.50479 8.56648 4.51413C8.58647 4.52348 8.60415 4.53711 8.61827 4.55406L10.5882 6.92061L10.7382 7.10073H10.9725H18.9047C18.9446 7.10073 18.9828 7.11655 19.0109 7.14472C19.0391 7.17288 19.0549 7.21108 19.0549 7.25091C19.0549 7.29074 19.0391 7.32894 19.0109 7.35711C18.9828 7.38527 18.9446 7.40109 18.9047 7.40109H10.6698C10.6484 7.40072 10.6274 7.3958 10.6081 7.38666L10.3941 7.83853L10.6081 7.38666C10.5884 7.37732 10.5709 7.3638 10.557 7.34705L10.5566 7.34652L8.58 4.97986L8.4301 4.80037H8.19624H3.95055C3.6455 4.80037 3.35295 4.92155 3.13724 5.13725C2.92154 5.35295 2.80036 5.6455 2.80036 5.95055V17.6538C2.80036 17.9589 2.92154 18.2514 3.13724 18.4671C3.35295 18.6828 3.6455 18.804 3.95055 18.804C3.99038 18.804 4.02858 18.8198 4.05674 18.848C4.08491 18.8762 4.10073 18.9144 4.10073 18.9542C4.10073 18.994 4.08491 19.0322 4.05674 19.0604C4.02858 19.0886 3.99038 19.1044 3.95055 19.1044C3.56584 19.1044 3.19689 18.9515 2.92486 18.6795C2.65282 18.4075 2.5 18.0385 2.5 17.6538V5.95055C2.5 5.56584 2.65282 5.19689 2.92486 4.92486C3.19689 4.65283 3.56584 4.5 3.95055 4.5L8.50182 4.5Z" fill="#031342" stroke="#031342"/>
<path d="M17.8519 19.1042H17.8508H3.94987V19.1041L3.9387 19.1044C3.91601 19.1049 3.89351 19.1002 3.87288 19.0908C3.85225 19.0814 3.83402 19.0674 3.81958 19.0499C3.80512 19.0324 3.79482 19.0119 3.78944 18.9898C3.78406 18.9678 3.78374 18.9448 3.78851 18.9227L3.78859 18.9223L5.73911 9.81985C5.74644 9.7857 5.76545 9.75517 5.79286 9.73351C5.82027 9.71186 5.85437 9.70043 5.8893 9.70121L5.88929 9.70133H5.90042H20.8546V9.70146L20.8658 9.70121C20.8885 9.7007 20.911 9.70534 20.9316 9.71477C20.9522 9.72421 20.9705 9.73819 20.9849 9.75568C20.9994 9.77316 21.0097 9.7937 21.015 9.81574C21.0204 9.83778 21.0207 9.86075 21.016 9.88293L19.2736 17.9579L19.2735 17.9583C19.2037 18.2833 19.0244 18.5744 18.7656 18.783C18.5068 18.9916 18.1843 19.105 17.8519 19.1042ZM17.8508 19.6042H3.94987C3.85168 19.6064 3.75427 19.5864 3.66495 19.5455C3.57563 19.5047 3.49673 19.4441 3.43416 19.3684C3.37159 19.2927 3.32699 19.2038 3.3037 19.1084C3.28041 19.013 3.27904 18.9135 3.29969 18.8175L5.25024 9.71498C5.28196 9.56711 5.36424 9.43492 5.48291 9.34117C5.60158 9.24742 5.74922 9.19797 5.90042 9.20133L17.8508 19.6042ZM4.26677 18.2011L4.14019 18.8039H4.7561H17.846C18.1113 18.8083 18.37 18.7209 18.5782 18.5564C18.7882 18.3905 18.9337 18.1567 18.9898 17.8951L18.99 17.8941L20.5375 10.6055L20.6657 10.0017H20.0484H6.39456H5.98865L5.90523 10.3989L4.26677 18.2011Z" fill="#031342" stroke="#031342"/>
</svg>
