<svg width="24" height="24" viewBox="0 0 24 24" fill="none" xmlns="http://www.w3.org/2000/svg">
<path fill-rule="evenodd" clip-rule="evenodd" d="M11.9996 3.9001C7.5261 3.9001 3.89961 7.52659 3.89961 12.0001C3.89961 16.4736 7.5261 20.1001 11.9996 20.1001C16.4731 20.1001 20.0996 16.4736 20.0996 12.0001C20.0996 7.52659 16.4731 3.9001 11.9996 3.9001ZM2.09961 12.0001C2.09961 6.53248 6.53199 2.1001 11.9996 2.1001C17.4672 2.1001 21.8996 6.53248 21.8996 12.0001C21.8996 17.4677 17.4672 21.9001 11.9996 21.9001C6.53199 21.9001 2.09961 17.4677 2.09961 12.0001ZM11.9996 18.0001C12.6209 18.0001 13.1246 17.4964 13.1246 16.8751C13.1246 16.2538 12.6209 15.7501 11.9996 15.7501C11.3783 15.7501 10.8746 16.2538 10.8746 16.8751C10.8746 17.4964 11.3783 18.0001 11.9996 18.0001ZM12.6873 6.66783C12.0035 6.53182 11.2948 6.60162 10.6507 6.86842C10.0065 7.13522 9.45601 7.58703 9.06868 8.16671C8.68135 8.7464 8.47461 9.42792 8.47461 10.1251C8.47461 10.6222 8.87755 11.0251 9.37461 11.0251C9.87167 11.0251 10.2746 10.6222 10.2746 10.1251C10.2746 9.78393 10.3758 9.45042 10.5653 9.16674C10.7549 8.88307 11.0243 8.66197 11.3395 8.53141C11.6547 8.40085 12.0015 8.36668 12.3361 8.43324C12.6708 8.4998 12.9781 8.66409 13.2194 8.90534C13.4606 9.14659 13.6249 9.45395 13.6915 9.78857C13.758 10.1232 13.7239 10.47 13.5933 10.7852C13.4627 11.1004 13.2416 11.3698 12.958 11.5594C12.6743 11.7489 12.3408 11.8501 11.9996 11.8501C11.7609 11.8501 11.532 11.9449 11.3632 12.1137C11.1944 12.2825 11.0996 12.5114 11.0996 12.7501V13.5001C11.0996 13.9972 11.5026 14.4001 11.9996 14.4001C12.4855 14.4001 12.8815 14.015 12.899 13.5334C13.274 13.4345 13.6321 13.2738 13.958 13.056C14.5377 12.6687 14.9895 12.1182 15.2563 11.4741C15.5231 10.83 15.5929 10.1212 15.4569 9.43741C15.3209 8.75362 14.9851 8.12553 14.4922 7.63255C13.9992 7.13957 13.3711 6.80384 12.6873 6.66783Z" fill="#121212"/>
</svg>
