<svg width="24" height="24" viewBox="0 0 24 24" fill="none" xmlns="http://www.w3.org/2000/svg">
<g id="list-24">
<path id="&#226;&#134;&#179; Icon Color" fill-rule="evenodd" clip-rule="evenodd" d="M2.84961 6.0001C2.84961 5.50304 3.25255 5.1001 3.74961 5.1001H20.2496C20.7467 5.1001 21.1496 5.50304 21.1496 6.0001C21.1496 6.49715 20.7467 6.9001 20.2496 6.9001H3.74961C3.25255 6.9001 2.84961 6.49715 2.84961 6.0001ZM2.84961 12.0001C2.84961 11.503 3.25255 11.1001 3.74961 11.1001H20.2496C20.7467 11.1001 21.1496 11.503 21.1496 12.0001C21.1496 12.4972 20.7467 12.9001 20.2496 12.9001H3.74961C3.25255 12.9001 2.84961 12.4972 2.84961 12.0001ZM3.74961 17.1001C3.25255 17.1001 2.84961 17.503 2.84961 18.0001C2.84961 18.4972 3.25255 18.9001 3.74961 18.9001H20.2496C20.7467 18.9001 21.1496 18.4972 21.1496 18.0001C21.1496 17.503 20.7467 17.1001 20.2496 17.1001H3.74961Z" fill="#031342"/>
</g>
</svg>
