<svg width="64" height="64" viewBox="0 0 64 64" fill="none" xmlns="http://www.w3.org/2000/svg">
<circle cx="32" cy="32" r="32" fill="#2255EA"/>
<g clip-path="url(#clip0_1567_22044)">
<path d="M52 47.9971V17.7637C52 16.1393 50.6287 14.7608 48.9971 14.7608H40.4969C40.2185 12.0896 37.949 10 35.1993 10C32.4496 10 30.1801 12.0896 29.9016 14.7608H14.0029C12.3694 14.7608 11 16.129 11 17.7637V47.9971C11 49.6529 12.3471 51 14.0029 51H48.9971C50.2744 51 52 49.7988 52 47.9971ZM39.291 36.0707L50.7988 24.1884V47.5785L39.291 36.0707ZM35.1993 11.2012C37.474 11.2012 39.3247 13.0463 39.3247 15.3144C39.3247 16.9331 38.6835 19.2047 37.6514 21.2429C36.5886 23.3418 35.5777 24.2859 35.1993 24.2859C34.8374 24.2859 33.8434 23.4293 32.7163 21.1304C31.7185 19.0954 31.0738 16.8124 31.0738 15.3144C31.0739 13.0463 32.9245 11.2012 35.1993 11.2012ZM12.2012 17.7637C12.2012 17.4828 12.2659 17.2167 12.381 16.9795L18.9199 23.5184L12.2012 30.237V17.7637ZM12.2012 47.9971V38.1284L22.8656 27.464L45.2003 49.7988H14.0029C13.0094 49.7988 12.2012 48.9905 12.2012 47.9971ZM48.9971 49.7988H46.8992L23.2902 26.19C23.0557 25.9555 22.6754 25.9555 22.4409 26.19L12.2012 36.4296V31.9358L20.1939 23.943C20.4285 23.7084 20.4285 23.3282 20.1939 23.0937L13.2347 16.1344C13.4678 16.024 13.7283 15.962 14.0029 15.962H17.4834L34.8266 33.3051C35.0627 33.541 35.4462 33.5396 35.6802 33.3009L43.2748 25.5552C43.8183 25.0006 42.9609 24.1599 42.417 24.7142L35.2471 32.0268L19.1821 15.962H29.9016C30.062 17.8655 30.8731 20.0996 31.6377 21.6592C33.2708 24.9899 34.57 25.4872 35.1993 25.4872C36.6879 25.4872 38.1595 22.8986 38.723 21.7856C39.723 19.811 40.3649 17.6882 40.4987 15.962H48.9971C49.5478 15.962 50.0413 16.2106 50.372 16.6012L44.7995 22.2845C44.2567 22.8382 45.1123 23.6811 45.6572 23.1254L50.7988 17.8816V22.4618L38.0169 35.6597C37.7888 35.8952 37.7917 36.2703 38.0236 36.5022L50.5041 48.9827C50.182 49.4737 49.6269 49.7988 48.9971 49.7988Z" fill="white"/>
<path d="M35.199 18.2636C36.7453 18.2636 38.0033 17.0031 38.0033 15.4536C38.0033 13.9041 36.7453 12.6436 35.199 12.6436C33.6526 12.6436 32.3945 13.9041 32.3945 15.4536C32.3945 17.0031 33.6526 18.2636 35.199 18.2636ZM35.199 13.8448C36.0829 13.8448 36.8021 14.5666 36.8021 15.4537C36.8021 16.3408 36.083 17.0625 35.199 17.0625C34.3149 17.0625 33.5957 16.3408 33.5957 15.4537C33.5957 14.5666 34.315 13.8448 35.199 13.8448Z" fill="white"/>
<path d="M27.8469 35.924C27.5004 35.229 26.4254 35.7652 26.772 36.4601C27.0572 37.0321 27.2019 37.6471 27.2019 38.2883C27.2019 39.907 26.5608 42.1786 25.5287 44.2167C24.4658 46.3156 23.4549 47.2597 23.0765 47.2597C22.7147 47.2597 21.7206 46.4031 20.5935 44.1042C19.5958 42.0692 18.9511 39.7863 18.9511 38.2883C18.9511 36.0202 20.8017 34.175 23.0765 34.175C23.6764 34.175 24.2562 34.3017 24.7998 34.5513C25.5054 34.8754 26.0068 33.7838 25.3011 33.4597C24.5992 33.1373 23.8508 32.9739 23.0766 32.9739C20.1395 32.9739 17.75 35.3579 17.75 38.2883C17.75 40.3119 18.6618 42.8926 19.5151 44.6329C21.148 47.9636 22.4474 48.4609 23.0766 48.4609C24.5652 48.4609 26.0367 45.8723 26.6003 44.7593C27.7292 42.5302 28.4031 40.111 28.4031 38.2882C28.403 37.4595 28.216 36.664 27.8469 35.924Z" fill="white"/>
<path d="M23.0778 35.6177C21.5315 35.6177 20.2734 36.8782 20.2734 38.4277C20.2734 39.9772 21.5315 41.2377 23.0778 41.2377C24.6241 41.2377 25.8821 39.9772 25.8821 38.4277C25.8821 36.8782 24.6241 35.6177 23.0778 35.6177ZM23.0778 40.0365C22.1938 40.0365 21.4746 39.3148 21.4746 38.4277C21.4746 37.5406 22.1938 36.8188 23.0778 36.8188C23.9618 36.8188 24.6809 37.5406 24.6809 38.4277C24.6809 39.3148 23.9618 40.0365 23.0778 40.0365Z" fill="white"/>
</g>
<defs>
<clipPath id="clip0_1567_22044">
<rect width="41" height="41" fill="white" transform="translate(11 10)"/>
</clipPath>
</defs>
</svg>
