<svg width="64" height="64" viewBox="0 0 64 64" fill="none" xmlns="http://www.w3.org/2000/svg">
<circle cx="32" cy="32" r="32" fill="#2255EA"/>
<path d="M47.625 16.125H44.5V14.8438C44.5 14.1641 44.2366 13.5124 43.7678 13.0318C43.2989 12.5512 42.663 12.2812 42 12.2812C41.337 12.2812 40.7011 12.5512 40.2322 13.0318C39.7634 13.5124 39.5 14.1641 39.5 14.8438V16.125H34.5V14.8438C34.5 14.1641 34.2366 13.5124 33.7678 13.0318C33.2989 12.5512 32.663 12.2812 32 12.2812C31.337 12.2812 30.7011 12.5512 30.2322 13.0318C29.7634 13.5124 29.5 14.1641 29.5 14.8438V16.125H24.5V14.8438C24.5 14.1641 24.2366 13.5124 23.7678 13.0318C23.2989 12.5512 22.663 12.2812 22 12.2812C21.337 12.2812 20.7011 12.5512 20.2322 13.0318C19.7634 13.5124 19.5 14.1641 19.5 14.8438V16.125H16.375C15.5462 16.125 14.7513 16.4625 14.1653 17.0632C13.5792 17.6639 13.25 18.4786 13.25 19.3281V44.9531C13.25 45.8026 13.5792 46.6174 14.1653 47.2181C14.7513 47.8188 15.5462 48.1562 16.375 48.1562H33.875C34.0408 48.1562 34.1997 48.0888 34.3169 47.9686C34.4342 47.8485 34.5 47.6855 34.5 47.5156C34.5 47.3457 34.4342 47.1828 34.3169 47.0626C34.1997 46.9425 34.0408 46.875 33.875 46.875H16.375C15.8782 46.8735 15.4021 46.6705 15.0508 46.3104C14.6995 45.9503 14.5015 45.4624 14.5 44.9531V25.0938H49.5V35.9844C49.5 36.1543 49.5658 36.3172 49.6831 36.4374C49.8003 36.5575 49.9592 36.625 50.125 36.625C50.2908 36.625 50.4497 36.5575 50.5669 36.4374C50.6842 36.3172 50.75 36.1543 50.75 35.9844V19.3281C50.75 18.4786 50.4208 17.6639 49.8347 17.0632C49.2487 16.4625 48.4538 16.125 47.625 16.125ZM40.75 14.8438C40.75 14.5039 40.8817 14.1781 41.1161 13.9378C41.3505 13.6975 41.6685 13.5625 42 13.5625C42.3315 13.5625 42.6495 13.6975 42.8839 13.9378C43.1183 14.1781 43.25 14.5039 43.25 14.8438V18.6875C43.25 19.0273 43.1183 19.3532 42.8839 19.5935C42.6495 19.8338 42.3315 19.9688 42 19.9688C41.6685 19.9688 41.3505 19.8338 41.1161 19.5935C40.8817 19.3532 40.75 19.0273 40.75 18.6875V14.8438ZM30.75 14.8438C30.75 14.5039 30.8817 14.1781 31.1161 13.9378C31.3505 13.6975 31.6685 13.5625 32 13.5625C32.3315 13.5625 32.6495 13.6975 32.8839 13.9378C33.1183 14.1781 33.25 14.5039 33.25 14.8438V18.6875C33.25 19.0273 33.1183 19.3532 32.8839 19.5935C32.6495 19.8338 32.3315 19.9688 32 19.9688C31.6685 19.9688 31.3505 19.8338 31.1161 19.5935C30.8817 19.3532 30.75 19.0273 30.75 18.6875V14.8438ZM20.75 14.8438C20.75 14.5039 20.8817 14.1781 21.1161 13.9378C21.3505 13.6975 21.6685 13.5625 22 13.5625C22.3315 13.5625 22.6495 13.6975 22.8839 13.9378C23.1183 14.1781 23.25 14.5039 23.25 14.8438V18.6875C23.25 19.0273 23.1183 19.3532 22.8839 19.5935C22.6495 19.8338 22.3315 19.9688 22 19.9688C21.6685 19.9688 21.3505 19.8338 21.1161 19.5935C20.8817 19.3532 20.75 19.0273 20.75 18.6875V14.8438ZM49.5 23.8125H14.5V19.3281C14.5015 18.8189 14.6995 18.3309 15.0508 17.9708C15.4021 17.6107 15.8782 17.4078 16.375 17.4062H19.5V18.6875C19.5 19.3671 19.7634 20.0189 20.2322 20.4995C20.7011 20.98 21.337 21.25 22 21.25C22.663 21.25 23.2989 20.98 23.7678 20.4995C24.2366 20.0189 24.5 19.3671 24.5 18.6875V17.4062H29.5V18.6875C29.5 19.3671 29.7634 20.0189 30.2322 20.4995C30.7011 20.98 31.337 21.25 32 21.25C32.663 21.25 33.2989 20.98 33.7678 20.4995C34.2366 20.0189 34.5 19.3671 34.5 18.6875V17.4062H39.5V18.6875C39.5 19.3671 39.7634 20.0189 40.2322 20.4995C40.7011 20.98 41.337 21.25 42 21.25C42.663 21.25 43.2989 20.98 43.7678 20.4995C44.2366 20.0189 44.5 19.3671 44.5 18.6875V17.4062H47.625C48.1218 17.4078 48.5979 17.6107 48.9492 17.9708C49.3005 18.3309 49.4985 18.8189 49.5 19.3281V23.8125Z" fill="white"/>
<path d="M30.75 29.5781C30.75 29.2383 30.6183 28.9124 30.3839 28.6721C30.1495 28.4319 29.8315 28.2969 29.5 28.2969H27C26.6685 28.2969 26.3505 28.4319 26.1161 28.6721C25.8817 28.9124 25.75 29.2383 25.75 29.5781V31.5C25.75 31.8398 25.8817 32.1657 26.1161 32.406C26.3505 32.6463 26.6685 32.7812 27 32.7812H29.5C29.8315 32.7812 30.1495 32.6463 30.3839 32.406C30.6183 32.1657 30.75 31.8398 30.75 31.5V29.5781ZM27 31.5V29.5781H29.5V31.5H27Z" fill="white"/>
<path d="M23.25 29.5781C23.25 29.2383 23.1183 28.9124 22.8839 28.6721C22.6495 28.4319 22.3315 28.2969 22 28.2969H19.5C19.1685 28.2969 18.8505 28.4319 18.6161 28.6721C18.3817 28.9124 18.25 29.2383 18.25 29.5781V31.5C18.25 31.8398 18.3817 32.1657 18.6161 32.406C18.8505 32.6463 19.1685 32.7812 19.5 32.7812H22C22.3315 32.7812 22.6495 32.6463 22.8839 32.406C23.1183 32.1657 23.25 31.8398 23.25 31.5V29.5781ZM19.5 31.5V29.5781H22V31.5H19.5Z" fill="white"/>
<path d="M44.5 32.7812C44.8315 32.7812 45.1495 32.6463 45.3839 32.406C45.6183 32.1657 45.75 31.8398 45.75 31.5V29.5781C45.75 29.2383 45.6183 28.9124 45.3839 28.6721C45.1495 28.4319 44.8315 28.2969 44.5 28.2969H42C41.6685 28.2969 41.3505 28.4319 41.1161 28.6721C40.8817 28.9124 40.75 29.2383 40.75 29.5781V31.5C40.75 31.8398 40.8817 32.1657 41.1161 32.406C41.3505 32.6463 41.6685 32.7812 42 32.7812H44.5ZM42 29.5781H44.5V31.5H42V29.5781Z" fill="white"/>
<path d="M30.75 35.3438C30.75 35.0039 30.6183 34.678 30.3839 34.4378C30.1495 34.1975 29.8315 34.0625 29.5 34.0625H27C26.6685 34.0625 26.3505 34.1975 26.1161 34.4378C25.8817 34.678 25.75 35.0039 25.75 35.3438V37.2656C25.75 37.6054 25.8817 37.9313 26.1161 38.1716C26.3505 38.4119 26.6685 38.5469 27 38.5469H29.5C29.8315 38.5469 30.1495 38.4119 30.3839 38.1716C30.6183 37.9313 30.75 37.6054 30.75 37.2656V35.3438ZM27 37.2656V35.3438H29.5V37.2656H27Z" fill="white"/>
<path d="M23.25 35.3438C23.25 35.0039 23.1183 34.678 22.8839 34.4378C22.6495 34.1975 22.3315 34.0625 22 34.0625H19.5C19.1685 34.0625 18.8505 34.1975 18.6161 34.4378C18.3817 34.678 18.25 35.0039 18.25 35.3438V37.2656C18.25 37.6054 18.3817 37.9313 18.6161 38.1716C18.8505 38.4119 19.1685 38.5469 19.5 38.5469H22C22.3315 38.5469 22.6495 38.4119 22.8839 38.1716C23.1183 37.9313 23.25 37.6054 23.25 37.2656V35.3438ZM19.5 37.2656V35.3438H22V37.2656H19.5Z" fill="white"/>
<path d="M29.5 39.8281H27C26.6685 39.8281 26.3505 39.9631 26.1161 40.2034C25.8817 40.4437 25.75 40.7696 25.75 41.1094V43.0312C25.75 43.3711 25.8817 43.697 26.1161 43.9372C26.3505 44.1775 26.6685 44.3125 27 44.3125H29.5C29.8315 44.3125 30.1495 44.1775 30.3839 43.9372C30.6183 43.697 30.75 43.3711 30.75 43.0312V41.1094C30.75 40.7696 30.6183 40.4437 30.3839 40.2034C30.1495 39.9631 29.8315 39.8281 29.5 39.8281ZM27 43.0312V41.1094H29.5V43.0312H27Z" fill="white"/>
<path d="M34.5 32.7812H37C37.3315 32.7812 37.6495 32.6463 37.8839 32.406C38.1183 32.1657 38.25 31.8398 38.25 31.5V29.5781C38.25 29.2383 38.1183 28.9124 37.8839 28.6721C37.6495 28.4319 37.3315 28.2969 37 28.2969H34.5C34.1685 28.2969 33.8505 28.4319 33.6161 28.6721C33.3817 28.9124 33.25 29.2383 33.25 29.5781V31.5C33.25 31.8398 33.3817 32.1657 33.6161 32.406C33.8505 32.6463 34.1685 32.7812 34.5 32.7812ZM34.5 29.5781H37V31.5H34.5V29.5781Z" fill="white"/>
<path d="M33.25 37.2656C33.25 37.6054 33.3817 37.9313 33.6161 38.1716C33.8505 38.4119 34.1685 38.5469 34.5 38.5469C34.6658 38.5469 34.8247 38.4794 34.9419 38.3592C35.0592 38.2391 35.125 38.0762 35.125 37.9062C35.125 37.7363 35.0592 37.5734 34.9419 37.4533C34.8247 37.3331 34.6658 37.2656 34.5 37.2656V35.3438H37C37.1658 35.3438 37.3247 35.2763 37.4419 35.1561C37.5592 35.036 37.625 34.873 37.625 34.7031C37.625 34.5332 37.5592 34.3703 37.4419 34.2501C37.3247 34.13 37.1658 34.0625 37 34.0625H34.5C34.1685 34.0625 33.8505 34.1975 33.6161 34.4378C33.3817 34.678 33.25 35.0039 33.25 35.3438V37.2656Z" fill="white"/>
<path d="M22 39.8281H19.5C19.1685 39.8281 18.8505 39.9631 18.6161 40.2034C18.3817 40.4437 18.25 40.7696 18.25 41.1094V43.0312C18.25 43.3711 18.3817 43.697 18.6161 43.9372C18.8505 44.1775 19.1685 44.3125 19.5 44.3125H22C22.3315 44.3125 22.6495 44.1775 22.8839 43.9372C23.1183 43.697 23.25 43.3711 23.25 43.0312V41.1094C23.25 40.7696 23.1183 40.4437 22.8839 40.2034C22.6495 39.9631 22.3315 39.8281 22 39.8281ZM19.5 43.0312V41.1094H22V43.0312H19.5Z" fill="white"/>
<path d="M42.625 34.0625C41.018 34.0625 39.4471 34.5509 38.111 35.466C36.7748 36.3811 35.7334 37.6818 35.1185 39.2036C34.5035 40.7254 34.3426 42.3999 34.6561 44.0154C34.9696 45.6309 35.7435 47.1148 36.8798 48.2795C38.0161 49.4442 39.4638 50.2374 41.0399 50.5587C42.616 50.8801 44.2497 50.7151 45.7343 50.0848C47.219 49.4545 48.4879 48.387 49.3807 47.0175C50.2735 45.6479 50.75 44.0378 50.75 42.3906C50.7475 40.1826 49.8907 38.0658 48.3675 36.5046C46.8443 34.9433 44.7791 34.065 42.625 34.0625ZM42.625 49.4375C41.2653 49.4375 39.9361 49.0242 38.8055 48.2499C37.6749 47.4756 36.7937 46.375 36.2733 45.0873C35.753 43.7997 35.6168 42.3828 35.8821 41.0158C36.1474 39.6489 36.8022 38.3933 37.7636 37.4077C38.7251 36.4222 39.9501 35.7511 41.2838 35.4792C42.6174 35.2072 43.9997 35.3468 45.256 35.8802C46.5122 36.4135 47.5859 37.3167 48.3414 38.4756C49.0968 39.6344 49.5 40.9969 49.5 42.3906C49.4979 44.2589 48.7728 46.05 47.484 47.3711C46.1951 48.6922 44.4477 49.4353 42.625 49.4375Z" fill="white"/>
<path d="M46.2353 39.7052L41.374 44.688L39.1647 42.4228C39.0468 42.3061 38.8889 42.2415 38.725 42.2429C38.5612 42.2444 38.4044 42.3118 38.2885 42.4306C38.1726 42.5493 38.1069 42.71 38.1055 42.878C38.1041 43.046 38.1671 43.2078 38.2809 43.3286L40.9322 46.0468C41.0494 46.1669 41.2083 46.2343 41.374 46.2343C41.5398 46.2343 41.6987 46.1669 41.8159 46.0468L47.119 40.6111C47.2329 40.4902 47.2959 40.3284 47.2945 40.1605C47.293 39.9925 47.2273 39.8318 47.1114 39.713C46.9955 39.5943 46.8388 39.5269 46.6749 39.5254C46.511 39.524 46.3532 39.5885 46.2353 39.7052Z" fill="white"/>
</svg>
