<svg width="24" height="24" viewBox="0 0 24 24" fill="none" xmlns="http://www.w3.org/2000/svg">
<g id="line / settings-24">
<path id="&#226;&#134;&#179; Icon Color" fill-rule="evenodd" clip-rule="evenodd" d="M8.78923 1.99574C8.99522 1.92925 9.21989 1.95499 9.4055 2.06636L11.5978 3.38175C11.8666 3.36975 12.1357 3.36975 12.4044 3.38178L14.5876 2.07528C14.7717 1.96513 14.9941 1.93907 15.1987 2.00369C16.6314 2.45634 17.9486 3.21495 19.0592 4.22701C19.2184 4.37209 19.3075 4.57862 19.3039 4.79397L19.261 7.34232C19.409 7.56966 19.5449 7.80472 19.668 8.0465L21.8903 9.2821C22.0775 9.38614 22.2112 9.56521 22.2579 9.77417C22.5848 11.2386 22.5883 12.7568 22.268 14.2227C22.2219 14.4335 22.0873 14.6142 21.8986 14.7187L19.6676 15.9543C19.5447 16.1959 19.4089 16.4307 19.261 16.6579L19.3039 19.2062C19.3075 19.4216 19.2184 19.6281 19.0592 19.7732C17.951 20.7831 16.6393 21.5439 15.2125 22.0045C15.0065 22.071 14.7819 22.0452 14.5963 21.9338L12.4039 20.6184C12.1352 20.6305 11.8661 20.6304 11.5973 20.6184L9.41413 21.9249C9.23006 22.0351 9.00762 22.0611 8.80306 21.9965C7.37035 21.5439 6.05312 20.7853 4.94257 19.7732C4.78337 19.6281 4.69423 19.4216 4.69786 19.2062L4.74081 16.6636C4.59364 16.4339 4.45794 16.1971 4.33421 15.9539L2.11143 14.7181C1.9243 14.6141 1.79056 14.435 1.7439 14.226C1.41694 12.7616 1.41349 11.2434 1.73379 9.7775C1.77984 9.56675 1.91442 9.38603 2.10313 9.28151L4.33411 8.04588C4.4571 7.80432 4.59285 7.56947 4.74076 7.34232L4.69786 4.79397C4.69424 4.57861 4.78339 4.37207 4.9426 4.22699C6.0508 3.21714 7.36242 2.45633 8.78923 1.99574ZM6.20349 5.11573L6.24452 7.5531C6.24718 7.71101 6.19993 7.86572 6.10949 7.99519C5.90833 8.2832 5.73221 8.58792 5.58307 8.906C5.51602 9.04899 5.40554 9.16717 5.26738 9.24369L3.13414 10.4252C2.94754 11.4669 2.95013 12.5339 3.14179 13.5747L5.26845 14.7571C5.40557 14.8333 5.51533 14.9506 5.58228 15.0925C5.73469 15.4155 5.91246 15.7259 6.11391 16.0208C6.20151 16.149 6.24715 16.3013 6.24452 16.4565L6.20351 18.8844C7.01417 19.5692 7.9412 20.103 8.94044 20.4603L11.0251 19.2128C11.1572 19.1338 11.3103 19.0973 11.4638 19.1083C11.8214 19.1338 12.1804 19.1338 12.538 19.1083C12.6918 19.0973 12.8452 19.1339 12.9774 19.2132L15.0688 20.4681C16.0648 20.1051 16.9888 19.569 17.7983 18.8845L17.7572 16.4471C17.7546 16.2892 17.8018 16.1345 17.8923 16.005C18.0934 15.717 18.2696 15.4123 18.4187 15.0942C18.4857 14.9512 18.5962 14.833 18.7344 14.7565L20.8676 13.575C21.0542 12.5333 21.0516 11.4663 20.86 10.4255L18.7333 9.2431C18.5956 9.16656 18.4856 9.04861 18.4187 8.906C18.2696 8.58792 18.0934 8.2832 17.8923 7.99519C17.8018 7.86572 17.7546 7.71101 17.7572 7.5531L17.7983 5.11583C16.9876 4.431 16.0606 3.89721 15.0613 3.53988L12.9766 4.78742C12.8446 4.86643 12.6915 4.90292 12.538 4.89194C12.1804 4.86636 11.8214 4.86636 11.4638 4.89194C11.31 4.90294 11.1566 4.86628 11.0244 4.78697L8.93297 3.53212C7.937 3.89511 7.01294 4.43123 6.20349 5.11573ZM12.0009 8.25011C9.92981 8.25011 8.25088 9.92904 8.25088 12.0001C8.25088 14.0712 9.92981 15.7501 12.0009 15.7501C14.0719 15.7501 15.7509 14.0712 15.7509 12.0001C15.7509 9.92904 14.0719 8.25011 12.0009 8.25011ZM6.75088 12.0001C6.75088 9.10061 9.10138 6.75011 12.0009 6.75011C14.9004 6.75011 17.2509 9.10061 17.2509 12.0001C17.2509 14.8996 14.9004 17.2501 12.0009 17.2501C9.10138 17.2501 6.75088 14.8996 6.75088 12.0001Z" fill="#031342"/>
</g>
</svg>
