<svg width="24" height="24" viewBox="0 0 24 24" fill="none" xmlns="http://www.w3.org/2000/svg">
<g id="user-24">
<path id="&#226;&#134;&#179; Icon Color" fill-rule="evenodd" clip-rule="evenodd" d="M11.9996 3.9001C7.5261 3.9001 3.89961 7.52659 3.89961 12.0001C3.89961 13.9976 4.62262 15.8261 5.82121 17.2384C6.40665 16.4366 7.14497 15.7532 7.99776 15.2297C8.29788 15.0455 8.60925 14.8829 8.9295 14.7426C7.96086 13.8904 7.34961 12.6416 7.34961 11.2501C7.34961 8.68197 9.43149 6.6001 11.9996 6.6001C14.5677 6.6001 16.6496 8.68197 16.6496 11.2501C16.6496 12.6416 16.0384 13.8904 15.0697 14.7426C15.39 14.8829 15.7014 15.0455 16.0015 15.2297C16.8543 15.7532 17.5926 16.4366 18.178 17.2384C19.3766 15.8261 20.0996 13.9975 20.0996 12.0001C20.0996 7.52659 16.4731 3.9001 11.9996 3.9001ZM18.6648 19.3204C20.6523 17.5097 21.8996 14.9006 21.8996 12.0001C21.8996 6.53248 17.4672 2.1001 11.9996 2.1001C6.53199 2.1001 2.09961 6.53248 2.09961 12.0001C2.09961 14.9007 3.34702 17.5099 5.33465 19.3206C5.36255 19.3494 5.39258 19.3764 5.42467 19.4016C7.17314 20.9559 9.47611 21.9001 11.9996 21.9001C14.523 21.9001 16.8259 20.956 18.5743 19.4018C18.6066 19.3765 18.6368 19.3493 18.6648 19.3204ZM16.854 18.4849C16.3877 17.7916 15.7767 17.2038 15.0599 16.7638C14.155 16.2084 13.1164 15.9099 12.0555 15.8998C12.0369 15.9 12.0183 15.9001 11.9996 15.9001C11.981 15.9001 11.9624 15.9 11.9438 15.8998C10.8828 15.9099 9.84421 16.2084 8.93938 16.7638C8.22257 17.2038 7.61152 17.7916 7.14524 18.4849C8.49805 19.4992 10.1787 20.1001 11.9996 20.1001C13.8206 20.1001 15.5012 19.4992 16.854 18.4849ZM12.0497 14.0997C13.6006 14.0729 14.8496 12.8074 14.8496 11.2501C14.8496 9.67609 13.5736 8.4001 11.9996 8.4001C10.4256 8.4001 9.14961 9.67609 9.14961 11.2501C9.14961 12.8074 10.3986 14.0729 11.9495 14.0997C11.9662 14.0996 11.9829 14.0995 11.9996 14.0995C12.0163 14.0995 12.033 14.0996 12.0497 14.0997Z" fill="#031342"/>
</g>
</svg>
