<svg width="24" height="24" viewBox="0 0 24 24" fill="none" xmlns="http://www.w3.org/2000/svg">
<path fill-rule="evenodd" clip-rule="evenodd" d="M6.1808 5.6955C5.76714 5.58944 5.33183 5.60329 4.92574 5.73544C4.51965 5.86759 4.15956 6.11258 3.88753 6.44178C3.61551 6.77098 3.44279 7.1708 3.38955 7.59452C3.33632 8.01823 3.40477 8.44835 3.5869 8.83461C3.76903 9.22088 4.05733 9.54733 4.41811 9.77583C4.7764 10.0028 5.19147 10.1238 5.61544 10.125C5.61906 10.125 5.62268 10.125 5.6263 10.125C6.04012 10.1257 6.37518 10.4614 6.37505 10.8753C6.37491 11.2891 6.03963 11.6246 5.62581 11.625C5.62182 11.625 5.61783 11.625 5.61384 11.625C4.8606 11.6253 4.11769 11.8008 3.44389 12.1377C2.76711 12.4761 2.17878 12.9679 1.7258 13.574C1.47782 13.9058 1.00784 13.9737 0.67605 13.7258C0.344263 13.4778 0.27632 13.0078 0.524293 12.676C1.11719 11.8827 1.88725 11.239 2.77306 10.796C2.87923 10.743 2.9867 10.6929 3.09535 10.646C2.7347 10.3172 2.44011 9.9196 2.23017 9.47436C1.92661 8.83059 1.81253 8.11372 1.90125 7.40753C1.98998 6.70133 2.27785 6.03497 2.73122 5.4863C3.18459 4.93763 3.78475 4.52932 4.46156 4.30907C5.13837 4.08882 5.86389 4.06573 6.55334 4.24249C7.24279 4.41926 7.86769 4.78858 8.35504 5.30731C8.84238 5.82604 9.17204 6.47275 9.30549 7.17187C9.38316 7.57874 9.11629 7.97153 8.70942 8.0492C8.30255 8.12686 7.90976 7.85999 7.8321 7.45312C7.75203 7.03365 7.55423 6.64562 7.26182 6.33439C6.96942 6.02315 6.59447 5.80156 6.1808 5.6955ZM12 10.125C10.3432 10.125 9.00004 11.4681 9.00004 13.125C9.00004 14.7819 10.3432 16.125 12 16.125C13.6569 16.125 15 14.7819 15 13.125C15 11.4681 13.6569 10.125 12 10.125ZM7.50005 13.125C7.50005 10.6397 9.51476 8.625 12 8.625C14.4853 8.625 16.5 10.6397 16.5 13.125C16.5 14.584 15.8057 15.8807 14.7295 16.703C15.0225 16.8323 15.307 16.9828 15.5807 17.1537C16.6545 17.8244 17.5184 18.7832 18.074 19.9209C18.2557 20.2931 18.1013 20.7422 17.7291 20.9239C17.3569 21.1057 16.9078 20.9513 16.7261 20.5791C16.2938 19.6938 15.6216 18.9478 14.7861 18.4259C13.9505 17.9041 12.9852 17.6274 12 17.6274C11.0149 17.6274 10.0496 17.9041 9.214 18.4259C8.37844 18.9478 7.70624 19.6938 7.27398 20.5791C7.09224 20.9513 6.64316 21.1057 6.27095 20.9239C5.89874 20.7422 5.74434 20.2931 5.92609 19.9209C6.48163 18.7832 7.34554 17.8244 8.41941 17.1537C8.69307 16.9828 8.97756 16.8323 9.27055 16.703C8.19434 15.8807 7.50005 14.5839 7.50005 13.125Z" fill="#031342"/>
<path d="M17.6942 5.6955C18.1693 5.57371 18.5432 5.60329 18.9493 5.73544C19.3554 5.86759 19.7155 6.11258 19.9875 6.44178C20.2595 6.77098 20.4323 7.1708 20.4855 7.59452C20.5387 8.01823 20.4703 8.44835 20.2881 8.83461C20.106 9.22088 19.8177 9.54733 19.4569 9.77583C19.0986 10.0028 18.6836 10.1238 18.2596 10.125L18.2487 10.125C17.8349 10.1257 17.4999 10.4614 17.5 10.8753C17.5001 11.2891 17.8354 11.6246 18.2492 11.625L18.2612 11.625C19.0145 11.6253 19.7574 11.8008 20.4312 12.1377C21.1079 12.4761 21.6963 12.9679 22.1492 13.574C22.3972 13.9058 22.8672 13.9737 23.199 13.7258C23.5308 13.4778 23.5987 13.0078 23.3508 12.676C22.7579 11.8827 21.9878 11.239 21.102 10.796C20.9958 10.743 20.8883 10.6929 20.7797 10.646C21.1403 10.3172 21.4349 9.9196 21.6449 9.47436C21.9484 8.83059 22.0625 8.11372 21.9738 7.40753C21.8851 6.70133 21.5972 6.03497 21.1438 5.4863C20.6905 4.93763 20.0903 4.52932 19.4135 4.30907C18.7367 4.08882 18.0112 4.06573 17.3217 4.24249C16.6323 4.41926 16.0074 4.78858 15.52 5.30731C15.0327 5.82604 14.703 6.47275 14.5696 7.17187C14.4919 7.57874 14.7588 7.97153 15.1656 8.0492C15.5725 8.12686 15.9653 7.85999 16.0429 7.45312C16.1206 7.04626 16.7819 5.9294 17.6942 5.6955Z" fill="#031342"/>
</svg>
