<svg width="64" height="64" viewBox="0 0 64 64" fill="none" xmlns="http://www.w3.org/2000/svg">
<circle cx="32" cy="32" r="32" fill="#2255EA"/>
<g clip-path="url(#clip0_1509_16101)">
<path d="M50.6626 18.0485C50.6382 18.0262 45.8223 13.5453 45.8223 13.5453C45.6382 13.3729 45.4477 13.1948 45.0922 13.1948H25.7037C25.1373 13.1948 24.6766 13.6443 24.6766 14.1968V17.2736L17.8431 18.4164C17.2954 18.5101 16.927 19.0215 17.0219 19.5554L17.3687 21.5282C15.1476 22.2574 12.8672 23.0091 10.6658 23.7806C10.1456 23.9662 9.87261 24.5304 10.0582 25.041L14.4373 36.9172C14.5254 37.1562 14.7563 37.3051 15.0025 37.3051C15.0699 37.3051 15.1386 37.2939 15.2057 37.2703C15.5179 37.1608 15.6799 36.8251 15.5676 36.5206L11.2533 24.82C13.3273 24.0955 15.4752 23.3865 17.5743 22.6972L19.638 34.4351L22.0126 47.9532C22.0984 48.4304 22.5283 48.7699 23.0136 48.7699C23.0685 48.7699 23.1243 48.7655 23.1802 48.7565L29.6117 47.6797L34.6374 46.8393L27.0788 49.4898L21.1181 51.5807L16.489 39.019C16.3768 38.7145 16.0329 38.5565 15.7206 38.6659C15.4085 38.7754 15.2465 39.111 15.3587 39.4155L20.0535 52.1557C20.2037 52.5563 20.5927 52.8054 21.0039 52.8054C21.1175 52.8054 21.2329 52.7863 21.3453 52.7462L27.485 50.5926L41.4261 45.704L44.0894 45.2586H49.9729C50.5392 45.2586 50.9999 44.8082 50.9999 44.2544V18.7087C51 18.358 50.805 18.1791 50.6626 18.0485ZM49.0713 18.1872H46.066L45.9915 18.1876C45.8476 18.1885 45.5107 18.1909 45.4253 18.1081C45.4056 18.089 45.3825 18.0251 45.3825 17.9064L45.3756 14.749L49.0713 18.1872ZM49.7989 44.0866H25.8778V32.6673C25.8778 32.3437 25.6088 32.0814 25.2772 32.0814C24.9455 32.0814 24.6766 32.3437 24.6766 32.6673V44.2543C24.6766 44.8079 25.1373 45.2585 25.7037 45.2585H36.9796L29.4086 46.5246L23.164 47.5701L20.8219 34.2369L18.2378 19.5393L24.6765 18.4625V29.9486C24.6765 30.2722 24.9454 30.5345 25.2771 30.5345C25.6088 30.5345 25.8777 30.2722 25.8777 29.9486V14.3666H44.1735L44.1814 17.9077C44.1814 18.3369 44.3152 18.6841 44.579 18.9397C44.9845 19.3325 45.5576 19.3598 45.9134 19.3598C45.944 19.3598 45.973 19.3596 46.0001 19.3594L49.7989 19.3592V44.0866Z" fill="white"/>
<path d="M28.7734 22.293C28.7734 22.6166 29.0423 22.8789 29.374 22.8789H46.5457C46.8773 22.8789 47.1462 22.6166 47.1462 22.293C47.1462 21.9694 46.8773 21.707 46.5457 21.707H29.374C29.0423 21.707 28.7734 21.9694 28.7734 22.293Z" fill="white"/>
<path d="M46.5457 25.8696H29.374C29.0423 25.8696 28.7734 26.132 28.7734 26.4556C28.7734 26.7792 29.0423 27.0415 29.374 27.0415H46.5457C46.8773 27.0415 47.1462 26.7792 47.1462 26.4556C47.1462 26.132 46.8773 25.8696 46.5457 25.8696Z" fill="white"/>
<path d="M46.5457 30.0322H29.374C29.0423 30.0322 28.7734 30.2946 28.7734 30.6182C28.7734 30.9418 29.0423 31.2041 29.374 31.2041H46.5457C46.8773 31.2041 47.1462 30.9418 47.1462 30.6182C47.1462 30.2946 46.8773 30.0322 46.5457 30.0322Z" fill="white"/>
<path d="M46.5457 34.1951H29.374C29.0423 34.1951 28.7734 34.4574 28.7734 34.781C28.7734 35.1046 29.0423 35.3669 29.374 35.3669H46.5457C46.8773 35.3669 47.1462 35.1046 47.1462 34.781C47.1462 34.4574 46.8773 34.1951 46.5457 34.1951Z" fill="white"/>
<path d="M46.5457 38.3577H29.374C29.0423 38.3577 28.7734 38.62 28.7734 38.9436C28.7734 39.2672 29.0423 39.5295 29.374 39.5295H46.5457C46.8773 39.5295 47.1462 39.2672 47.1462 38.9436C47.1462 38.62 46.8773 38.3577 46.5457 38.3577Z" fill="white"/>
</g>
<defs>
<clipPath id="clip0_1509_16101">
<rect width="41" height="40" fill="white" transform="translate(10 13)"/>
</clipPath>
</defs>
</svg>
